<?xml version="1.0" encoding="UTF-8"?>
<svg width="24px" height="23px" viewBox="0 0 24 23" version="1.1" xmlns="http://www.w3.org/2000/svg" xmlns:xlink="http://www.w3.org/1999/xlink">
    <!-- Generator: Sketch 52.2 (67145) - http://www.bohemiancoding.com/sketch -->
    <title>Group 18</title>
    <desc>Created with Sketch.</desc>
    <defs>
        <polygon id="path-1" points="0.00955471698 12.9939019 23.9690588 12.9939019 23.9690588 23.9572399 0.00955471698 23.9572399"></polygon>
    </defs>
    <g id="Page-1" stroke="none" stroke-width="1" fill="none" fill-rule="evenodd">
        <g id="Group-18">
            <path d="M5,18 L5,22 L6.75207465,21.9952725 L6.84304948,21.9386008 C6.99325092,21.8450895 6.99579904,21.7245395 6.99993113,21.5247759 L6.98684618,18 L5,18 Z" id="Fill-1" fill="#9AA5B5"></path>
            <path d="M17,18 L17,22 L18.7520747,21.9952725 L18.8430495,21.9386008 C18.9932509,21.8450895 18.995799,21.7245395 18.9999311,21.5247759 L18.9868462,18 L17,18 Z" id="Fill-1-Copy" fill="#9AA5B5"></path>
            <polygon id="Fill-3" fill="#9AA5B5" points="6.9846219 2 5.00804176 2.00126386 5 6 7 6"></polygon>
            <polygon id="Fill-3-Copy" fill="#9AA5B5" points="18.9846219 2 17.0080418 2.00126386 17 6 19 6"></polygon>
            <polygon id="Fill-5" fill="#9AA5B5" points="5.03323027 6 5.01488227 17.314368 5 17.3145051 5 18 7 18 6.96282831 6"></polygon>
            <polygon id="Fill-5-Copy" fill="#9AA5B5" points="17.0332303 6 17.0148823 17.314368 17 17.3145051 17 18 19 18 18.9628283 6"></polygon>
            <path d="M18.7979127,6.4690027e-06 C17.9179342,6.4690027e-06 17.1386954,0.679134124 17,1.54830933 L17,2 L22.0105591,2 L22.0105591,5 L2.00314331,5 L2.00314331,2 L6.99890458,1.99743652 L6.99890458,1.50003881 C6.86020916,0.630863612 6.06115795,6.4690027e-06 5.18117951,6.4690027e-06 L1.78210674,6.4690027e-06 C0.799465229,6.4690027e-06 2.58760108e-05,0.799445822 2.58760108e-05,1.78215202 L2.58760108e-05,5.1812248 C2.58760108e-05,6.16386631 0.799465229,7.00057983 1.78210674,7.00057983 L22.1969854,7.00057983 C23.179627,7.00057983 24,6.16386631 24,5.1812248 L24,1.78215202 C24,0.799445822 23.179627,6.4690027e-06 22.1969854,6.4690027e-06 L18.7979127,6.4690027e-06 Z" id="Fill-13" fill="#9AA5B5"></path>
            <mask id="mask-2" fill="white">
                <use xlink:href="#path-1"></use>
            </mask>
            <g id="Clip-16"></g>
            <path d="M18.7979127,16.0000065 C17.9179342,16.0000065 17.1386954,16.6791341 17,17.5483093 L17,18 L22.0105591,18 L22.0105591,21 L2.00314331,21 L2.00314331,18 L6.99890458,17.9974365 L6.99890458,17.5000388 C6.86020916,16.6308636 6.06115795,16.0000065 5.18117951,16.0000065 L1.78210674,16.0000065 C0.799465229,16.0000065 2.58760108e-05,16.7994458 2.58760108e-05,17.782152 L2.58760108e-05,21.1812248 C2.58760108e-05,22.1638663 0.799465229,23.0005798 1.78210674,23.0005798 L22.1969854,23.0005798 C23.179627,23.0005798 24,22.1638663 24,21.1812248 L24,17.782152 C24,16.7994458 23.179627,16.0000065 22.1969854,16.0000065 L18.7979127,16.0000065 Z" id="Fill-13" fill="#9AA5B5" mask="url(#mask-2)" transform="translate(12.000013, 19.500293) scale(1, -1) translate(-12.000013, -19.500293) "></path>
        </g>
    </g>
</svg>